<?xml version="1.0" encoding="utf-8"?>
<!-- Generator: Adobe Illustrator 25.0.0, SVG Export Plug-In . SVG Version: 6.00 Build 0)  -->
<svg version="1.1" id="Layer_1" xmlns="http://www.w3.org/2000/svg" xmlns:xlink="http://www.w3.org/1999/xlink" x="0px" y="0px"
	 viewBox="0 0 1920 1080" style="enable-background:new 0 0 1920 1080;" xml:space="preserve">
<style type="text/css">
	
		.st0{opacity:0.99;fill:none;stroke:#1457A5;stroke-width:13;stroke-linecap:round;stroke-miterlimit:10;enable-background:new    ;}
	.st1{fill:none;stroke:#1457A5;stroke-width:13;stroke-linecap:round;stroke-miterlimit:10;}
	.st2{fill:#1457A5;}
	.st3{fill:#1557A3;stroke:#1557A3;stroke-width:3;stroke-linecap:round;stroke-miterlimit:10;}
	.st4{fill:#1557A3;stroke:#1557A3;stroke-width:2;stroke-miterlimit:10;}
	.st5{fill:url(#SVGID_1_);stroke:url(#SVGID_2_);stroke-width:18;stroke-linecap:round;stroke-miterlimit:10;}
	.st6{fill:url(#SVGID_3_);stroke:url(#SVGID_4_);stroke-width:18;stroke-linecap:round;stroke-miterlimit:10;}
	.st7{fill:url(#SVGID_5_);stroke:url(#SVGID_6_);stroke-width:18;stroke-linecap:round;stroke-miterlimit:10;}
	.st8{fill:url(#SVGID_7_);stroke:url(#SVGID_8_);stroke-width:18;stroke-linecap:round;stroke-miterlimit:10;}
	.st9{fill:url(#SVGID_9_);stroke:url(#SVGID_10_);stroke-width:18;stroke-linecap:round;stroke-miterlimit:10;}
	.st10{fill:url(#SVGID_11_);stroke:url(#SVGID_12_);stroke-width:18;stroke-linecap:round;stroke-miterlimit:10;}
	.st11{fill:url(#SVGID_13_);stroke:url(#SVGID_14_);stroke-width:18;stroke-linecap:round;stroke-miterlimit:10;}
	.st12{fill:url(#SVGID_15_);stroke:url(#SVGID_16_);stroke-width:18;stroke-linecap:round;stroke-miterlimit:10;}
	.st13{fill:url(#SVGID_17_);stroke:url(#SVGID_18_);stroke-width:18;stroke-linecap:round;stroke-miterlimit:10;}
	.st14{display:none;fill:none;stroke:#1557A3;stroke-width:3;stroke-linecap:round;stroke-miterlimit:10;}
	.st15{fill:url(#SVGID_19_);}
	.st16{fill:#1759A6;}
</style>
<g id="Layer_6">
	<g id="Layer_1_1_">
		<path class="st0" d="M993.5,643.6v23c0,1.5-1.2,2.8-2.8,2.8c-9,0-36.8,0-36.9,0s-27.5,0-36.4,0c-1.5,0-2.8-1.2-2.8-2.8v-26.9
			c0-0.7-0.1-1.4-0.4-2c-1.7-4.3-8.8-21-21.5-30.9c-40.2-31.3-57.4-68.9-54.9-101.9c0.3-4.3,0.2-8.5,0.7-12.6"/>
		<path class="st1" d="M852.1,449c19.7-35.9,57.9-60.2,101.7-60.2c64,0,116,51.9,116,116c0,31-6,60.3-53.4,100.4"/>
		<circle class="st2" cx="1003.5" cy="620.1" r="6.5"/>
		<circle class="st2" cx="842.3" cy="471.9" r="6.5"/>
	</g>
	<g id="rocket">
		<path class="st3" d="M982.2,560.7c0.8-1.2,7-10.6,9-34.7c0-0.1,0.1-0.1,0.1-0.1c1.4,0.7,16.4,8.9,20.8,18.2v23.6
			c0,0.1-0.1,0.1-0.1,0.1c-1.2-1-10.6-8.7-29.7-6.9C982.2,560.8,982.2,560.8,982.2,560.7z"/>
		<path class="st3" d="M924.9,560.7c-0.8-1.2-7-10.6-9-34.7c0-0.1-0.1-0.1-0.1-0.1c-1.4,0.7-16.4,8.9-20.8,18.2v23.6
			c0,0.1,0.1,0.1,0.1,0.1c1.2-1,10.6-8.7,29.7-6.9C924.9,560.8,924.9,560.8,924.9,560.7z"/>
		<path class="st4" d="M982.7,497.7c-0.6-31.4-16-60.4-28.3-72.8c-0.1-0.1-0.2-0.1-0.3,0c-12.3,12.4-27.6,41.5-28.3,72.8
			c-0.6,30.7,13,62.6,13.7,64.1c0,0,0,0,0.1,0l14.6-6l14.6,6c0,0,0.1,0,0.1,0C969.7,560.3,983.3,528.4,982.7,497.7z M954.3,459
			c4.1,0,7.5,3.4,7.5,7.5s-3.4,7.5-7.5,7.5s-7.5-3.4-7.5-7.5S950.1,459,954.3,459z M954.3,505.5c-6.7,0-12.2-5.5-12.2-12.2
			s5.5-12.2,12.2-12.2s12.2,5.5,12.2,12.2S961,505.5,954.3,505.5z"/>
	</g>
	<g id="Layer_2_1_">
		<linearGradient id="SVGID_1_" gradientUnits="userSpaceOnUse" x1="857.73" y1="349.115" x2="875.7" y2="349.115">
			<stop  offset="5.291006e-03" style="stop-color:#F15965"/>
			<stop  offset="0.1975" style="stop-color:#F25F5F"/>
			<stop  offset="0.4513" style="stop-color:#F47050"/>
			<stop  offset="0.7384" style="stop-color:#F78B36"/>
			<stop  offset="1" style="stop-color:#FBAA19"/>
		</linearGradient>
		<linearGradient id="SVGID_2_" gradientUnits="userSpaceOnUse" x1="866.715" y1="377.43" x2="866.715" y2="320.8">
			<stop  offset="0" style="stop-color:#FBAA19"/>
			<stop  offset="1" style="stop-color:#F15965"/>
		</linearGradient>
		<line class="st5" x1="857.7" y1="329.8" x2="875.7" y2="368.4"/>
		<linearGradient id="SVGID_3_" gradientUnits="userSpaceOnUse" x1="959.28" y1="335.12" x2="960.72" y2="335.12">
			<stop  offset="5.291006e-03" style="stop-color:#F15965"/>
			<stop  offset="0.1975" style="stop-color:#F25F5F"/>
			<stop  offset="0.4513" style="stop-color:#F47050"/>
			<stop  offset="0.7384" style="stop-color:#F78B36"/>
			<stop  offset="1" style="stop-color:#FBAA19"/>
		</linearGradient>
		<linearGradient id="SVGID_4_" gradientUnits="userSpaceOnUse" x1="960" y1="365.41" x2="960" y2="304.83">
			<stop  offset="0" style="stop-color:#FBAA19"/>
			<stop  offset="0.2089" style="stop-color:#FA9F23"/>
			<stop  offset="0.5737" style="stop-color:#F6823E"/>
			<stop  offset="1" style="stop-color:#F15965"/>
		</linearGradient>
		<line class="st6" x1="960.7" y1="313.8" x2="959.3" y2="356.4"/>
		<linearGradient id="SVGID_5_" gradientUnits="userSpaceOnUse" x1="1037.63" y1="364.7" x2="1059.9301" y2="364.7">
			<stop  offset="5.291006e-03" style="stop-color:#F15965"/>
			<stop  offset="0.1975" style="stop-color:#F25F5F"/>
			<stop  offset="0.4513" style="stop-color:#F47050"/>
			<stop  offset="0.7384" style="stop-color:#F78B36"/>
			<stop  offset="1" style="stop-color:#FBAA19"/>
		</linearGradient>
		<linearGradient id="SVGID_6_" gradientUnits="userSpaceOnUse" x1="1048.78" y1="391.85" x2="1048.78" y2="337.55">
			<stop  offset="0" style="stop-color:#FBAA19"/>
			<stop  offset="1" style="stop-color:#F15965"/>
		</linearGradient>
		<line class="st7" x1="1059.9" y1="346.5" x2="1037.6" y2="382.9"/>
		<linearGradient id="SVGID_7_" gradientUnits="userSpaceOnUse" x1="1085.14" y1="438.76" x2="1122.61" y2="438.76">
			<stop  offset="5.291006e-03" style="stop-color:#F15965"/>
			<stop  offset="0.1975" style="stop-color:#F25F5F"/>
			<stop  offset="0.4513" style="stop-color:#F47050"/>
			<stop  offset="0.7384" style="stop-color:#F78B36"/>
			<stop  offset="1" style="stop-color:#FBAA19"/>
		</linearGradient>
		<linearGradient id="SVGID_8_" gradientUnits="userSpaceOnUse" x1="1076.14" y1="438.76" x2="1131.61" y2="438.76">
			<stop  offset="0" style="stop-color:#FBAA19"/>
			<stop  offset="0.2004" style="stop-color:#FAA022"/>
			<stop  offset="0.535" style="stop-color:#F7873A"/>
			<stop  offset="0.9601" style="stop-color:#F25D61"/>
			<stop  offset="1" style="stop-color:#F15965"/>
		</linearGradient>
		<line class="st8" x1="1122.6" y1="428.6" x2="1085.1" y2="448.9"/>
		<linearGradient id="SVGID_9_" gradientUnits="userSpaceOnUse" x1="1094.45" y1="520.37" x2="1137.01" y2="520.37">
			<stop  offset="5.291006e-03" style="stop-color:#F15965"/>
			<stop  offset="0.1975" style="stop-color:#F25F5F"/>
			<stop  offset="0.4513" style="stop-color:#F47050"/>
			<stop  offset="0.7384" style="stop-color:#F78B36"/>
			<stop  offset="1" style="stop-color:#FBAA19"/>
		</linearGradient>
		<linearGradient id="SVGID_10_" gradientUnits="userSpaceOnUse" x1="1085.45" y1="520.37" x2="1146.01" y2="520.37">
			<stop  offset="0" style="stop-color:#FBAA19"/>
			<stop  offset="0.2004" style="stop-color:#FAA022"/>
			<stop  offset="0.535" style="stop-color:#F7873A"/>
			<stop  offset="0.9601" style="stop-color:#F25D61"/>
			<stop  offset="1" style="stop-color:#F15965"/>
		</linearGradient>
		<line class="st9" x1="1137" y1="521.4" x2="1094.4" y2="519.4"/>
		<linearGradient id="SVGID_11_" gradientUnits="userSpaceOnUse" x1="1077.66" y1="597.015" x2="1112.45" y2="597.015">
			<stop  offset="5.291006e-03" style="stop-color:#F15965"/>
			<stop  offset="0.1975" style="stop-color:#F25F5F"/>
			<stop  offset="0.4513" style="stop-color:#F47050"/>
			<stop  offset="0.7384" style="stop-color:#F78B36"/>
			<stop  offset="1" style="stop-color:#FBAA19"/>
		</linearGradient>
		<linearGradient id="SVGID_12_" gradientUnits="userSpaceOnUse" x1="1073.8461" y1="575.806" x2="1116.2639" y2="618.2239">
			<stop  offset="0" style="stop-color:#FBAA19"/>
			<stop  offset="0.2917" style="stop-color:#F9962B"/>
			<stop  offset="0.8847" style="stop-color:#F2645B"/>
			<stop  offset="1" style="stop-color:#F15965"/>
		</linearGradient>
		<line class="st10" x1="1112.4" y1="609.3" x2="1077.7" y2="584.7"/>
		<linearGradient id="SVGID_13_" gradientUnits="userSpaceOnUse" x1="785.18" y1="414.08" x2="819.78" y2="414.08">
			<stop  offset="5.291006e-03" style="stop-color:#F15965"/>
			<stop  offset="0.1975" style="stop-color:#F25F5F"/>
			<stop  offset="0.4513" style="stop-color:#F47050"/>
			<stop  offset="0.7384" style="stop-color:#F78B36"/>
			<stop  offset="1" style="stop-color:#FBAA19"/>
		</linearGradient>
		<linearGradient id="SVGID_14_" gradientUnits="userSpaceOnUse" x1="784.8741" y1="422.2898" x2="820.0859" y2="405.8702">
			<stop  offset="0" style="stop-color:#F15965"/>
			<stop  offset="3.293765e-02" style="stop-color:#F15C62"/>
			<stop  offset="0.6852" style="stop-color:#F8942E"/>
			<stop  offset="1" style="stop-color:#FBAA19"/>
		</linearGradient>
		<line class="st11" x1="819.8" y1="426.5" x2="785.2" y2="401.6"/>
		<linearGradient id="SVGID_15_" gradientUnits="userSpaceOnUse" x1="769.18" y1="499.1" x2="811.74" y2="499.1">
			<stop  offset="5.291006e-03" style="stop-color:#F15965"/>
			<stop  offset="0.1975" style="stop-color:#F25F5F"/>
			<stop  offset="0.4513" style="stop-color:#F47050"/>
			<stop  offset="0.7384" style="stop-color:#F78B36"/>
			<stop  offset="1" style="stop-color:#FBAA19"/>
		</linearGradient>
		<linearGradient id="SVGID_16_" gradientUnits="userSpaceOnUse" x1="767.9727" y1="513.1516" x2="812.9473" y2="485.0484">
			<stop  offset="0" style="stop-color:#F15965"/>
			<stop  offset="3.293765e-02" style="stop-color:#F15C62"/>
			<stop  offset="0.6852" style="stop-color:#F8942E"/>
			<stop  offset="1" style="stop-color:#FBAA19"/>
		</linearGradient>
		<line class="st12" x1="811.7" y1="500.1" x2="769.2" y2="498.1"/>
		<linearGradient id="SVGID_17_" gradientUnits="userSpaceOnUse" x1="774.15" y1="580.51" x2="811.77" y2="580.51">
			<stop  offset="5.291006e-03" style="stop-color:#F4813F"/>
			<stop  offset="0.3156" style="stop-color:#F5853B"/>
			<stop  offset="0.6272" style="stop-color:#F79130"/>
			<stop  offset="0.9385" style="stop-color:#FAA51E"/>
			<stop  offset="1" style="stop-color:#FBAA19"/>
		</linearGradient>
		<linearGradient id="SVGID_18_" gradientUnits="userSpaceOnUse" x1="772.191" y1="601.279" x2="813.729" y2="559.741">
			<stop  offset="0" style="stop-color:#F15965"/>
			<stop  offset="3.293765e-02" style="stop-color:#F15C62"/>
			<stop  offset="0.6852" style="stop-color:#F8942E"/>
			<stop  offset="1" style="stop-color:#FBAA19"/>
		</linearGradient>
		<line class="st13" x1="811.8" y1="570.5" x2="774.2" y2="590.5"/>
		<polygon class="st14" points="937.5,666.2 923.6,585.2 953.9,571 982.7,586.3 970.2,666.2 		"/>
	</g>
	<g id="Layer_3">
		<linearGradient id="SVGID_19_" gradientUnits="userSpaceOnUse" x1="950.4376" y1="773.9155" x2="950.4376" y2="678.4073">
			<stop  offset="5.291006e-03" style="stop-color:#F15965"/>
			<stop  offset="0.3231" style="stop-color:#F46F50"/>
			<stop  offset="0.9838" style="stop-color:#FBA91A"/>
			<stop  offset="1" style="stop-color:#FBAA19"/>
		</linearGradient>
		<path class="st15" d="M934.8,679.5c0-0.5-0.4-0.8-0.8-0.7c-4.2,1.3-10.2,13.2-13.3,23.6c-6.7,22.4,2,46.8,7.2,46.8
			c3.7,0,5.8-12.4,8.4-11.9c2.3,0.4,0.7,1.7,3.2,14c1.8,8.7,5,9.1,7.4,22.4c0.5,2.9,12.1-12.9,14.7-25.4c1.4-6.7,1.2-12.4,0.8-16.4
			c0-0.2,0.2-0.3,0.3-0.2c2,1.1,4.9,2.9,7.5,5.9c3.4,3.8,4.4,6.1,4.9,7.2c1.1,2.6,8.3-16.7,7.6-32.3c-0.3-7.1-2-19.1-10.4-33
			c-0.1-0.2-0.2-0.3-0.4-0.3c-1.8-0.4-3.6-0.6-5.6-0.6c-1.4,0.1-2.5-0.1-4,0c-0.4,0-0.7,0.4-0.6,0.7c0.4,2.5,0.5,4.8-0.4,9.3
			c-0.6,2.9-1.6,5.2-2.5,7c-0.1,0.2-0.4,0.3-0.6,0.2l-4.1-2.5c-0.3-0.2-0.6,0-0.7,0.3c-0.3,2.2-1,5.1-2.5,8.3c-1,2.2-2.3,5-3.7,4.9
			c-1.8-0.2-2.9-5.3-3.1-6.7c-0.7-3.7-0.3-6.1-1-6.3c-0.9-0.2-2,5.3-3.7,5.3c-1.9,0-3.7-6.6-4.3-11.3
			C934.5,684.4,934.6,681.5,934.8,679.5z"/>
	</g>
	<g id="Layer_4">
		<path class="st16" d="M986.8,649.7c0,0-12.1-9.2-18-23.1c0,0-1.2-3.7-2.3-13l-0.1-45l-7.5,1.8l-0.8,10.9c0,0-0.6-2.8-3.2-3.7
			c-0.4-0.1-1.1-1.2-1.1-1.2s-0.8,1.1-1.2,1.2c-2.6,0.9-3,3.7-3,3.7l-0.8-10.9l-7.5-1.8l-0.1,45c-1.2,9.3-2.3,13-2.3,13
			c-5.9,13.9-18,23.1-18,23.1l-1.7,1l0.1,13.4h69.5v-13.2L986.8,649.7z"/>
	</g>
</g>
</svg>
