<svg id="Layer_1" data-name="Layer 1" xmlns="http://www.w3.org/2000/svg" xmlns:xlink="http://www.w3.org/1999/xlink" viewBox="0 0 408 497.03"><defs><style>.cls-1,.cls-10,.cls-11,.cls-12,.cls-13,.cls-14,.cls-2,.cls-6,.cls-7,.cls-8,.cls-9{fill:none;}.cls-1,.cls-2{stroke:#1758a5;stroke-width:13px;}.cls-1,.cls-10,.cls-11,.cls-12,.cls-13,.cls-14,.cls-2,.cls-4,.cls-6,.cls-7,.cls-8,.cls-9{stroke-linecap:round;}.cls-1,.cls-10,.cls-11,.cls-12,.cls-13,.cls-14,.cls-2,.cls-4,.cls-5,.cls-6,.cls-7,.cls-8,.cls-9{stroke-miterlimit:10;}.cls-1{opacity:0.99;isolation:isolate;}.cls-3{fill:#1758a5;}.cls-4,.cls-5{fill:#1858a3;stroke:#1858a3;}.cls-4{stroke-width:3px;}.cls-5{stroke-width:2px;}.cls-10,.cls-11,.cls-12,.cls-13,.cls-14,.cls-6,.cls-7,.cls-8,.cls-9{stroke-width:18px;}.cls-6{stroke:url(#linear-gradient);}.cls-7{stroke:url(#linear-gradient-2);}.cls-8{stroke:url(#linear-gradient-3);}.cls-9{stroke:url(#linear-gradient-4);}.cls-10{stroke:url(#linear-gradient-5);}.cls-11{stroke:url(#linear-gradient-6);}.cls-12{stroke:url(#linear-gradient-7);}.cls-13{stroke:url(#linear-gradient-8);}.cls-14{stroke:url(#linear-gradient-9);}.cls-15{fill:url(#linear-gradient-10);}.cls-16{fill:#1b5ba6;}</style><linearGradient id="linear-gradient" x1="155.28" y1="423.92" x2="155.28" y2="482.84" gradientTransform="matrix(1, 0, 0, -1, -42.89, 499.81)" gradientUnits="userSpaceOnUse"><stop offset="0" stop-color="#fbaa1b"/><stop offset="1" stop-color="#f15b66"/></linearGradient><linearGradient id="linear-gradient-2" x1="254.21" y1="436.64" x2="254.21" y2="499.81" gradientTransform="matrix(1, 0, 0, -1, -42.89, 499.81)" gradientUnits="userSpaceOnUse"><stop offset="0" stop-color="#fbaa1b"/><stop offset="0.21" stop-color="#f9a024"/><stop offset="0.57" stop-color="#f58240"/><stop offset="1" stop-color="#f15b66"/></linearGradient><linearGradient id="linear-gradient-3" x1="348.31" y1="408.54" x2="348.31" y2="465.03" xlink:href="#linear-gradient"/><linearGradient id="linear-gradient-4" x1="377.86" y1="358.32" x2="435.62" y2="358.32" gradientTransform="matrix(1, 0, 0, -1, -42.89, 499.81)" gradientUnits="userSpaceOnUse"><stop offset="0" stop-color="#fbaa1b"/><stop offset="0.2" stop-color="#f9a123"/><stop offset="0.54" stop-color="#f6873a"/><stop offset="0.96" stop-color="#f15f62"/><stop offset="1" stop-color="#f15b66"/></linearGradient><linearGradient id="linear-gradient-5" x1="387.72" y1="271.74" x2="450.89" y2="271.74" xlink:href="#linear-gradient-4"/><linearGradient id="linear-gradient-6" x1="375.32" y1="212.6" x2="419.49" y2="168.44" gradientTransform="matrix(1, 0, 0, -1, -42.89, 499.81)" gradientUnits="userSpaceOnUse"><stop offset="0" stop-color="#fbaa1b"/><stop offset="0.29" stop-color="#f8972e"/><stop offset="0.88" stop-color="#f1645c"/><stop offset="1" stop-color="#f15b66"/></linearGradient><linearGradient id="linear-gradient-7" x1="69" y1="376.02" x2="105.33" y2="392.97" gradientTransform="matrix(1, 0, 0, -1, -42.89, 499.81)" gradientUnits="userSpaceOnUse"><stop offset="0" stop-color="#f15b66"/><stop offset="0.03" stop-color="#f15e62"/><stop offset="0.69" stop-color="#f79530"/><stop offset="1" stop-color="#fbaa1b"/></linearGradient><linearGradient id="linear-gradient-8" x1="51.06" y1="279.73" x2="97.79" y2="308.92" xlink:href="#linear-gradient-7"/><linearGradient id="linear-gradient-9" x1="55.5" y1="186.38" x2="98.76" y2="229.65" xlink:href="#linear-gradient-7"/><linearGradient id="linear-gradient-10" x1="244.14" y1="2.93" x2="244.14" y2="104.17" gradientTransform="matrix(1, 0, 0, -1, 0, 502)" gradientUnits="userSpaceOnUse"><stop offset="0.01" stop-color="#f15b66"/><stop offset="0.32" stop-color="#f36f51"/><stop offset="0.98" stop-color="#fbaa1b"/><stop offset="1" stop-color="#fbaa1b"/></linearGradient></defs><g id="Layer_6" data-name="Layer 6"><g id="Layer_1-2" data-name="Layer 1"><path class="cls-1" d="M289.73,360.89v24.39a3,3,0,0,1-3,3H209a3,3,0,0,1-3-3V356.76a4.71,4.71,0,0,0-.43-2.12c-1.8-4.56-9.33-22.27-22.79-32.77-42.63-33.19-60.87-73.06-58.22-108,.32-4.56.21-9,.74-13.36" transform="translate(-42.89 -2.19)"/><path class="cls-2" d="M139.8,154.55a123,123,0,0,1,230.83,59.17c0,32.87-6.36,63.94-56.62,106.46" transform="translate(-42.89 -2.19)"/><circle class="cls-3" cx="257.44" cy="333.79" r="6.89"/><circle class="cls-3" cx="86.51" cy="176.64" r="6.89"/></g><g id="rocket"><path class="cls-4" d="M277.75,273c.85-1.27,7.42-11.24,9.54-36.79a.11.11,0,0,1,.11-.11c1.48.74,17.39,9.44,22.05,19.3v25a.1.1,0,0,1-.1.11c-1.28-1.06-11.24-9.23-31.5-7.32C277.75,273.1,277.75,273.1,277.75,273Z" transform="translate(-42.89 -2.19)"/><path class="cls-4" d="M217,273c-.85-1.27-7.42-11.24-9.54-36.79a.11.11,0,0,0-.11-.11c-1.48.74-17.39,9.44-22.06,19.3v25a.11.11,0,0,0,.11.11c1.27-1.06,11.24-9.23,31.49-7.32C217,273.1,217,273.1,217,273Z" transform="translate(-42.89 -2.19)"/><path class="cls-5" d="M278.28,206.19c-.64-33.3-17-64.05-30-77.2a.21.21,0,0,0-.32,0c-13,13.15-29.26,44-30,77.2-.63,32.55,13.79,66.38,14.53,68h.11l15.48-6.37,15.48,6.37h.1C264.49,272.57,278.91,238.74,278.28,206.19Zm-30.12-41a8,8,0,1,1-7.95,8A8,8,0,0,1,248.16,165.15Zm0,49.31a12.94,12.94,0,1,1,12.94-12.94A13,13,0,0,1,248.16,214.46Z" transform="translate(-42.89 -2.19)"/></g><g id="Layer_2" data-name="Layer 2"><line class="cls-6" x1="102.84" y1="25.97" x2="121.93" y2="66.9"/><line class="cls-7" x1="212.06" y1="9" x2="210.57" y2="54.17"/><line class="cls-8" x1="317.24" y1="43.67" x2="293.6" y2="82.27"/><line class="cls-9" x1="383.73" y1="130.73" x2="343.97" y2="152.25"/><line class="cls-10" x1="399" y1="229.13" x2="353.83" y2="227.01"/><line class="cls-11" x1="372.91" y1="322.33" x2="336.12" y2="296.25"/><line class="cls-12" x1="62.65" y1="128.5" x2="25.97" y2="102.1"/><line class="cls-13" x1="54.06" y1="206.54" x2="9" y2="204.42"/><line class="cls-14" x1="54.17" y1="281.19" x2="14.3" y2="302.4"/></g><g id="Layer_3" data-name="Layer 3"><path class="cls-15" d="M227.49,399a.7.7,0,0,0-.85-.74c-4.46,1.38-10.82,14-14.1,25-7.11,23.75,2.12,49.63,7.63,49.63,3.92,0,6.15-13.15,8.91-12.62,2.44.42.74,1.8,3.39,14.84,1.91,9.23,5.3,9.65,7.85,23.76.53,3.07,12.83-13.68,15.58-26.94a56.25,56.25,0,0,0,.85-17.39c0-.21.21-.32.32-.21a28.45,28.45,0,0,1,7.95,6.26,27.26,27.26,0,0,1,5.2,7.63c1.17,2.76,8.8-17.71,8.06-34.25-.32-7.53-2.12-20.25-11-35-.11-.21-.21-.32-.42-.32a27.11,27.11,0,0,0-5.94-.63c-1.49.1-2.65-.11-4.24,0a.63.63,0,0,0-.64.74,25,25,0,0,1-.42,9.86,30.2,30.2,0,0,1-2.65,7.42.51.51,0,0,1-.64.21L248,413.59a.49.49,0,0,0-.74.32,30.71,30.71,0,0,1-2.65,8.8c-1.06,2.33-2.44,5.3-3.92,5.2-1.91-.21-3.08-5.62-3.29-7.11-.74-3.92-.32-6.46-1.06-6.68-1-.21-2.12,5.62-3.93,5.62-2,0-3.92-7-4.56-12A32,32,0,0,1,227.49,399Z" transform="translate(-42.89 -2.19)"/></g><g id="Layer_4" data-name="Layer 4"><path class="cls-16" d="M282.62,367.36s-12.83-9.75-19.08-24.49c0,0-1.27-3.93-2.44-13.79L261,281.37l-8,1.91-.85,11.55a5.65,5.65,0,0,0-3.39-3.92c-.42-.11-1.17-1.27-1.17-1.27s-.84,1.16-1.27,1.27a5.13,5.13,0,0,0-3.18,3.92l-.85-11.55-8-1.91-.11,47.71a100.47,100.47,0,0,1-2.44,13.79c-6.25,14.74-19.08,24.49-19.08,24.49l-1.8,1.06.1,14.21h73.7v-14Z" transform="translate(-42.89 -2.19)"/></g></g></svg>